<svg xmlns="http://www.w3.org/2000/svg" xmlns:xlink="http://www.w3.org/1999/xlink" width="181" height="66" viewBox="0 0 181 66">
  <defs>
    <clipPath id="clip-path">
      <rect id="Rectangle_41" data-name="Rectangle 41" width="181" height="66" transform="translate(3 0)" fill="none"/>
    </clipPath>
  </defs>
  <g id="Group_1221" data-name="Group 1221" transform="translate(-3 0.001)">
    <g id="Group_1220" data-name="Group 1220" transform="translate(0 -0.001)" clip-path="url(#clip-path)">
      <path id="Path_2277" data-name="Path 2277" d="M44.451,12.409H55.193l-.657,3.759a13.478,13.478,0,0,1,10.309-4.431c3.087,0,6.248.739,8.3,3.222,2.1,2.551,1.926,5.1,1.351,8.392L71.157,42.418H60.414L63.07,27.246c.305-1.746.831-4.364-.321-5.842a3.825,3.825,0,0,0-3.2-1.275,6.882,6.882,0,0,0-4.208,1.41,8.344,8.344,0,0,0-2.58,4.766l-2.82,16.113H39.2Z" transform="translate(8.074 2.418)" fill="#0070ac"/>
      <path id="Path_2278" data-name="Path 2278" d="M74.7,32.538a12.329,12.329,0,0,0,3.91,2.215,12.763,12.763,0,0,0,4.033.739,5.2,5.2,0,0,0,2.893-.807,2.07,2.07,0,0,0,.784-1.409,1.392,1.392,0,0,0-.3-1.342,5.6,5.6,0,0,0-2.633-1.075l-2.7-.672A7.869,7.869,0,0,1,75.9,27.571a6.333,6.333,0,0,1-1.042-5.17,13.038,13.038,0,0,1,4.1-7.318c2.694-2.349,6.945-3.624,11.376-3.624a22.2,22.2,0,0,1,9.26,1.946l-4.824,6.846a13.051,13.051,0,0,0-5.38-1.476,5.108,5.108,0,0,0-2.59.6,2.016,2.016,0,0,0-1.2,1.477,1.424,1.424,0,0,0,.982,1.679c.937.4,1.81.4,3.406.873l1.854.537a10.178,10.178,0,0,1,4.02,2.349A7.411,7.411,0,0,1,97.1,32.271a12.272,12.272,0,0,1-4.325,7.452c-4.1,3.491-9.252,3.759-11.737,3.759a19.421,19.421,0,0,1-11.472-3.49Z" transform="translate(14.33 2.361)" fill="#0070ac"/>
      <path id="Path_2279" data-name="Path 2279" d="M122.779,12.466h10.743l-5.251,30.01H117.528l.576-3.29a13.387,13.387,0,0,1-10.084,4.3,12,12,0,0,1-9.975-4.766c-2.347-3.09-3.156-6.514-2.37-11.011a20.211,20.211,0,0,1,6.735-12.018,18.268,18.268,0,0,1,11.548-4.229,9.8,9.8,0,0,1,8.315,3.893Zm-13.04,10.07a8.609,8.609,0,0,0-3.007,4.9,5.967,5.967,0,0,0,1.224,4.9,6.275,6.275,0,0,0,4.481,2.014,8.214,8.214,0,0,0,5.2-2.082,7.987,7.987,0,0,0,2.859-4.834,5.616,5.616,0,0,0-5.716-6.848,8.119,8.119,0,0,0-5.04,1.946" transform="translate(19.647 2.361)" fill="#0070ac"/>
      <path id="Path_2280" data-name="Path 2280" d="M132.029,12.374h10.742l-.857,4.9a12.479,12.479,0,0,1,4.958-4.163,13.018,13.018,0,0,1,5.784-1.208c.268,0,.727.068,2.125.134l-1.774,10.137a8.355,8.355,0,0,0-4.444-1.073,8.108,8.108,0,0,0-5.183,1.611,10.813,10.813,0,0,0-3.616,6.848L137.52,42.384H126.778Z" transform="translate(26.114 2.453)" fill="#0070ac"/>
      <path id="Path_2281" data-name="Path 2281" d="M41.9,23.075l1.75-10.061S18.679,13,0,34.87c-.006,0,15.165-11.369,41.9-11.794" transform="translate(0 2.681)" fill="#f06d4b"/>
      <path id="Path_2282" data-name="Path 2282" d="M23.652,25.071a79.18,79.18,0,0,0-12.22,3.465L9.493,39.616h31.04l1.727-9.87H22.835Z" transform="translate(1.955 5.165)" fill="#0070ac"/>
      <path id="Path_2283" data-name="Path 2283" d="M16.626,0,12.9,21.287a61.67,61.67,0,0,1,9.741-4.52c.967-.35,1.909-.658,2.828-.939L26.514,9.87H45.939L47.666,0Z" transform="translate(2.658 0.001)" fill="#0070ac"/>
      <path id="Path_2284" data-name="Path 2284" d="M7.2,57.347,9.836,42.3h3.312L10.507,57.347Z" transform="translate(4.482 8.713)" fill="#f06d4b"/>
      <path id="Path_2285" data-name="Path 2285" d="M19.172,56.782,20.3,50.369a2.327,2.327,0,0,0-.21-1.747,1.539,1.539,0,0,0-1.358-.59,2.294,2.294,0,0,0-1.6.59,2.963,2.963,0,0,0-.854,1.747l-1.125,6.412H11.884l2.021-11.523h3.268l-.288,1.649a8.864,8.864,0,0,1,.736-.7,5.437,5.437,0,0,1,.845-.6,4.548,4.548,0,0,1,.976-.411,4.117,4.117,0,0,1,1.143-.151,3.092,3.092,0,0,1,2.692,1.138,4.033,4.033,0,0,1,.47,3.138l-1.308,7.46Z" transform="translate(5.448 9.279)" fill="#f06d4b"/>
      <path id="Path_2286" data-name="Path 2286" d="M28.384,56.83H25.417l-2.5-11.608h3.461L27.6,52.939l3.956-7.717h3.4Z" transform="translate(7.721 9.316)" fill="#f06d4b"/>
      <path id="Path_2287" data-name="Path 2287" d="M43.876,53.375a7.636,7.636,0,0,1-1.646,1.9,7.827,7.827,0,0,1-2.2,1.289,7.065,7.065,0,0,1-2.576.474,5.9,5.9,0,0,1-2.391-.463,4.6,4.6,0,0,1-2.713-3.16,5.445,5.445,0,0,1-.063-2.332l.007-.043a6.638,6.638,0,0,1,.882-2.332,7.636,7.636,0,0,1,1.646-1.9,7.831,7.831,0,0,1,2.2-1.29,7.09,7.09,0,0,1,2.576-.473,5.936,5.936,0,0,1,2.391.462,4.75,4.75,0,0,1,1.744,1.269,4.7,4.7,0,0,1,.97,1.892A5.464,5.464,0,0,1,44.765,51l-.007.042a6.667,6.667,0,0,1-.882,2.334m-2.343-2.334a3.285,3.285,0,0,0,0-1.214,2.492,2.492,0,0,0-.447-1.011,2.377,2.377,0,0,0-.844-.7,2.6,2.6,0,0,0-1.179-.258,3.358,3.358,0,0,0-1.3.247,3.547,3.547,0,0,0-1.054.678,3.783,3.783,0,0,0-.766,1A4.016,4.016,0,0,0,35.523,51l-.007.042a3.235,3.235,0,0,0,0,1.214,2.474,2.474,0,0,0,.445,1.011,2.392,2.392,0,0,0,.836.7,2.586,2.586,0,0,0,1.19.258,3.336,3.336,0,0,0,1.3-.248,3.559,3.559,0,0,0,1.054-.677,3.835,3.835,0,0,0,.766-1,4.083,4.083,0,0,0,.417-1.214Z" transform="translate(9.63 9.279)" fill="#f06d4b"/>
      <path id="Path_2288" data-name="Path 2288" d="M42.969,57.457l2.022-11.523h3.267L46.236,57.457Zm2.159-12.791.509-2.9h3.439l-.509,2.9Z" transform="translate(11.851 8.603)" fill="#f06d4b"/>
      <path id="Path_2289" data-name="Path 2289" d="M55.571,56.448a6.425,6.425,0,0,1-2.9.591,5.478,5.478,0,0,1-2.314-.473,4.611,4.611,0,0,1-1.676-1.28,4.668,4.668,0,0,1-.915-1.891,5.642,5.642,0,0,1-.047-2.312l.008-.042a6.863,6.863,0,0,1,.859-2.322,7.647,7.647,0,0,1,1.583-1.914A7.345,7.345,0,0,1,52.3,45.517a6.772,6.772,0,0,1,2.522-.473,5.657,5.657,0,0,1,2.617.516,4.726,4.726,0,0,1,1.645,1.418L56.7,49.129a4.113,4.113,0,0,0-.988-.925A2.57,2.57,0,0,0,54.3,47.86a2.82,2.82,0,0,0-1.172.247,3.575,3.575,0,0,0-1,.678,3.9,3.9,0,0,0-.755,1A4.039,4.039,0,0,0,50.959,51l-.008.043a3.621,3.621,0,0,0-.014,1.247,2.406,2.406,0,0,0,.415,1.011,2.172,2.172,0,0,0,.806.677,2.549,2.549,0,0,0,1.159.247A3.3,3.3,0,0,0,54.8,53.89,7.829,7.829,0,0,0,56.176,53l1.573,1.934a9.474,9.474,0,0,1-2.178,1.516" transform="translate(12.809 9.279)" fill="#f06d4b"/>
      <path id="Path_2290" data-name="Path 2290" d="M68.186,51.75c-.028.115-.062.251-.1.409H60.065a2.253,2.253,0,0,0,.681,1.687,2.523,2.523,0,0,0,1.738.57A4.035,4.035,0,0,0,64,54.137a6.39,6.39,0,0,0,1.491-.9l1.58,1.655a7.45,7.45,0,0,1-2.256,1.58,6.792,6.792,0,0,1-2.83.569,6,6,0,0,1-2.32-.429,4.372,4.372,0,0,1-1.7-1.225,4.523,4.523,0,0,1-.929-1.881,5.984,5.984,0,0,1-.027-2.419l.008-.042a7.259,7.259,0,0,1,.827-2.322,7.522,7.522,0,0,1,1.506-1.913,7,7,0,0,1,2.02-1.29,6.131,6.131,0,0,1,2.4-.473,5.041,5.041,0,0,1,2.4.516,3.91,3.91,0,0,1,1.509,1.387,4.759,4.759,0,0,1,.681,2,8.058,8.058,0,0,1-.081,2.353l-.007.043c-.028.158-.055.293-.082.408m-3.345-3.407a1.792,1.792,0,0,0-1.536-.678,2.6,2.6,0,0,0-1.784.667,4.166,4.166,0,0,0-1.141,1.784H65.3a2.72,2.72,0,0,0-.463-1.773" transform="translate(14.72 9.279)" fill="#f06d4b"/>
    </g>
  </g>
</svg>
