<svg xmlns="http://www.w3.org/2000/svg" width="14.539" height="10.904" viewBox="0 0 14.539 10.904">
  <path id="Path_2273" data-name="Path 2273" d="M13.176,64H1.363A1.365,1.365,0,0,0,0,65.363v8.178A1.365,1.365,0,0,0,1.363,74.9H13.176a1.365,1.365,0,0,0,1.363-1.363V65.363A1.365,1.365,0,0,0,13.176,64Zm0,.909a.452.452,0,0,1,.174.035L7.27,70.214l-6.081-5.27a.453.453,0,0,1,.174-.035Zm0,9.087H1.363a.455.455,0,0,1-.454-.454V65.9l6.063,5.255a.455.455,0,0,0,.6,0L13.63,65.9v7.637A.455.455,0,0,1,13.176,74Z" transform="translate(0 -64)" fill="#007ab0"/>
</svg>
