<svg id="Group_1219" data-name="Group 1219" xmlns="http://www.w3.org/2000/svg" width="12.607" height="12.607" viewBox="0 0 12.607 12.607">
  <path id="Path_2274" data-name="Path 2274" d="M10.356,14.79A10.367,10.367,0,0,1,0,4.434a.45.45,0,0,1,.45-.45h3.6a.45.45,0,0,1,.45.45A5.791,5.791,0,0,0,5.1,7a.451.451,0,0,1-.113.541l-2.5,2.129A9.524,9.524,0,0,0,5.115,12.3L7.249,9.8a.45.45,0,0,1,.541-.112,5.791,5.791,0,0,0,2.567.6.45.45,0,0,1,.45.45v3.6A.45.45,0,0,1,10.356,14.79ZM5.9,12.771a9.381,9.381,0,0,0,4.008,1.108V11.173a6.677,6.677,0,0,1-2.192-.529L5.9,12.771ZM.911,4.884a9.386,9.386,0,0,0,1.106,4L4.146,7.076a6.683,6.683,0,0,1-.529-2.192Z" transform="translate(0 -2.183)" fill="#007ab0"/>
  <path id="Path_2275" data-name="Path 2275" d="M20.248,6.3h-.9a5.409,5.409,0,0,0-5.4-5.4V0A6.311,6.311,0,0,1,20.248,6.3Z" transform="translate(-7.642)" fill="#007ab0"/>
  <path id="Path_2276" data-name="Path 2276" d="M17.547,9.578h-.9a2.7,2.7,0,0,0-2.7-2.7v-.9A3.606,3.606,0,0,1,17.547,9.578Z" transform="translate(-7.642 -3.275)" fill="#007ab0"/>
</svg>
