<?xml version="1.0"?>
<svg xmlns="http://www.w3.org/2000/svg" xmlns:xlink="http://www.w3.org/1999/xlink" xmlns:svgjs="http://svgjs.com/svgjs" version="1.1" width="512" height="512" x="0" y="0" viewBox="0 0 512 512" style="enable-background:new 0 0 512 512" xml:space="preserve" class=""><g transform="matrix(1,0,0,1,80,-180)"><g xmlns="http://www.w3.org/2000/svg"><path d="m63.05 384.716h82.347v29.997h-82.347z" fill="#000000" data-original="#000000" style="" class=""/><path d="m285.957 384.716h81.446v29.997h-81.446z" fill="#000000" data-original="#000000" style="" class=""/><path d="m337.406 255.979h29.997v29.997h-29.997z" fill="#000000" data-original="#000000" style="" class=""/><path d="m175.897 384.716h80.289v29.997h-80.289z" fill="#000000" data-original="#000000" style="" class=""/><path d="m512 33.809h-432.234v147.198h-79.766v297.185h432.234v-147.461h79.766zm-402.236 29.997h372.239v117.2h-372.239zm322.47 147.198h49.769v29.734h-49.769zm-29.998 237.19h-372.239v-237.19h372.239zm29.998-147.461v-29.997h49.769v29.997z" fill="#000000" data-original="#000000" style="" class=""/><path d="m145.397 93.804h80.297v29.997h-80.297z" fill="#000000" data-original="#000000" style="" class=""/><path d="m146.35 255.979h-84.253v84.254h84.253zm-29.997 54.256h-24.259v-24.259h24.258v24.259z" fill="#000000" data-original="#000000" style="" class=""/></g></g></svg>
