<svg xmlns="http://www.w3.org/2000/svg" width="12.992" height="11.361" viewBox="0 0 12.992 11.361">
  <path id="_1946426" data-name="1946426" d="M11.592.5H1.4A1.4,1.4,0,0,0,0,1.9v8.562a1.4,1.4,0,0,0,1.4,1.4H11.592a1.4,1.4,0,0,0,1.4-1.4V1.9a1.4,1.4,0,0,0-1.4-1.4Zm0,.761a.631.631,0,0,1,.093.007L6.948,6.006a.639.639,0,0,1-.9,0L1.306,1.268A.632.632,0,0,1,1.4,1.261Zm.639,9.2a.639.639,0,0,1-.639.639H1.4a.639.639,0,0,1-.639-.639V1.9a.645.645,0,0,1,.007-.093L5.506,6.544a1.4,1.4,0,0,0,1.98,0l4.738-4.738a.646.646,0,0,1,.007.093Zm0,0" transform="translate(0 -0.5)"/>
</svg>
