<?xml version="1.0"?>
<svg xmlns="http://www.w3.org/2000/svg" xmlns:xlink="http://www.w3.org/1999/xlink" xmlns:svgjs="http://svgjs.com/svgjs" version="1.1" width="512" height="512" x="0" y="0" viewBox="0 0 511.999 511.999" style="enable-background:new 0 0 512 512" xml:space="preserve" class=""><g>
<path xmlns="http://www.w3.org/2000/svg" style="" d="M421.663,184.999l66.269,37.868v265.066c0,9.15-7.417,16.567-16.567,16.567H40.631  c-9.149,0-16.567-7.417-16.567-16.567V222.867L90.331,185L421.663,184.999z" fill="#eeeeee" data-original="#f27029"/>
<path xmlns="http://www.w3.org/2000/svg" style="" d="M421.664,268.276V13.712c0-3.431-2.781-6.213-6.212-6.213H96.544c-3.431,0-6.213,2.781-6.213,6.213  v254.565l165.66,100.586L421.664,268.276z" fill="#eeeeef" data-original="#eeeeef" class=""/>
<path xmlns="http://www.w3.org/2000/svg" style="" d="M396.814,7.499v275.866l24.85-15.089V13.712c0-3.431-2.781-6.213-6.212-6.213H396.814z" fill="#eeeeeeee" data-original="#d9d9d9" class=""/>
<path xmlns="http://www.w3.org/2000/svg" style="" d="M316.264,73.765H195.732c-3.314,0-6-2.686-6-6V46.632c0-3.314,2.686-6,6-6h120.533  c3.314,0,6,2.686,6,6v21.134C322.264,71.079,319.578,73.765,316.264,73.765z" fill="#eeeeeeee" data-original="#d4d8da" class=""/>
<g xmlns="http://www.w3.org/2000/svg">
	<path style="" d="M30.183,500.784l225.808-137.098l0.005-0.003L24.064,222.867v265.066   C24.064,493.12,26.451,497.746,30.183,500.784z" fill="#eeeeee" data-original="#f4b641" class=""/>
	<path style="" d="M481.813,500.784L256.005,363.686L256,363.683l231.933-140.816v265.066   C487.933,493.12,485.546,497.746,481.813,500.784z" fill="#eeeeee" data-original="#f4b641" class=""/>
</g>
<g xmlns="http://www.w3.org/2000/svg">
	<path style="" d="M40.631,504.5h430.734c3.962,0,7.597-1.395,10.448-3.716l-225.82-137.097L30.183,500.784   C33.034,503.104,36.669,504.5,40.631,504.5z" fill="#eeeeee" data-original="#fb8436" class=""/>
	<path style="" d="M463.081,237.954v249.978c0,0.483-0.041,0.956-0.082,1.428l18.814,11.423   c3.732-3.038,6.119-7.664,6.119-12.851V222.867L463.081,237.954z" fill="#eeeeee" data-original="#fb8436" class=""/>
	<polygon style="" points="255.992,363.686 255.993,363.687 256,363.683  " fill="#eeeeee" data-original="#fb8436" class=""/>
</g>
<path xmlns="http://www.w3.org/2000/svg" style="" d="M473.485,504.349c0.34-0.043,0.678-0.091,1.011-0.154c0.211-0.04,0.417-0.091,0.625-0.139  c0.29-0.068,0.579-0.139,0.863-0.222c0.221-0.064,0.439-0.134,0.656-0.207c0.26-0.087,0.517-0.182,0.771-0.282  c0.224-0.088,0.447-0.177,0.665-0.274c0.236-0.105,0.466-0.22,0.695-0.335c0.222-0.112,0.446-0.22,0.662-0.341  c0.213-0.119,0.416-0.25,0.623-0.378c0.61-0.378,1.202-0.782,1.755-1.233l-18.883-11.464c-0.706,8.499-7.815,15.18-16.497,15.18  h24.932c0.536,0,1.065-0.03,1.589-0.08C473.133,504.402,473.308,504.372,473.485,504.349z" fill="#eeeeee" data-original="#f27029"/>
<g xmlns="http://www.w3.org/2000/svg">
	<path style="" d="M495.422,222.723c-0.004-0.239-0.021-0.478-0.048-0.717c-0.007-0.059-0.009-0.118-0.017-0.177   c-0.04-0.289-0.099-0.577-0.174-0.863c-0.02-0.076-0.046-0.15-0.068-0.225c-0.061-0.207-0.131-0.412-0.211-0.616   c-0.038-0.096-0.077-0.191-0.118-0.285c-0.082-0.184-0.173-0.365-0.271-0.545c-0.047-0.086-0.089-0.173-0.139-0.257   c-0.013-0.021-0.022-0.043-0.035-0.064c-0.139-0.229-0.29-0.447-0.449-0.656c-0.034-0.044-0.072-0.084-0.107-0.128   c-0.154-0.194-0.316-0.378-0.486-0.553c-0.059-0.061-0.121-0.119-0.182-0.178c-0.169-0.162-0.345-0.316-0.527-0.46   c-0.055-0.043-0.107-0.088-0.163-0.13c-0.244-0.183-0.496-0.353-0.759-0.503c-0.006-0.003-0.011-0.008-0.017-0.011l-62.488-35.707   V7.5c0-4.143-3.357-7.5-7.5-7.5H90.332c-4.143,0-7.5,3.357-7.5,7.5v62.222c0,4.142,3.357,7.5,7.5,7.5s7.5-3.358,7.5-7.5V15h316.332   v169.828v0.013v74.038l-158.167,96.03l-158.165-96.03V99.722c0-4.143-3.357-7.5-7.5-7.5s-7.5,3.357-7.5,7.5v80.925l-62.488,35.707   c-0.005,0.003-0.009,0.007-0.014,0.009c-0.265,0.152-0.521,0.324-0.767,0.509c-0.05,0.037-0.096,0.077-0.145,0.115   c-0.191,0.151-0.375,0.312-0.552,0.483c-0.054,0.052-0.108,0.102-0.16,0.156c-0.186,0.19-0.364,0.391-0.531,0.604   c-0.02,0.026-0.044,0.049-0.063,0.076c-0.162,0.212-0.316,0.433-0.458,0.667c-0.016,0.026-0.027,0.053-0.043,0.079   c-0.038,0.064-0.07,0.132-0.106,0.197c-0.111,0.202-0.214,0.407-0.305,0.614c-0.034,0.077-0.066,0.155-0.097,0.234   c-0.091,0.228-0.17,0.458-0.237,0.691c-0.015,0.053-0.033,0.104-0.047,0.157c-0.079,0.298-0.141,0.599-0.182,0.901   c-0.004,0.032-0.005,0.064-0.009,0.096c-0.033,0.27-0.05,0.539-0.054,0.809c0,0.039-0.008,0.076-0.008,0.115v265.066   c0,7.3,3.271,13.846,8.419,18.264c0.066,0.063,0.138,0.117,0.206,0.178c0.077,0.065,0.154,0.13,0.233,0.194   c0.143,0.118,0.285,0.236,0.436,0.342c4.081,3.184,9.208,5.089,14.774,5.089h430.734c5.57,0,10.7-1.908,14.783-5.096   c0.134-0.095,0.261-0.202,0.389-0.306c0.11-0.089,0.217-0.18,0.325-0.272c0.046-0.042,0.095-0.078,0.14-0.121   c5.154-4.418,8.429-10.968,8.429-18.273V222.866C495.432,222.818,495.423,222.771,495.422,222.723z M429.164,197.923l43.992,25.138   l-43.992,26.71V197.923z M480.432,236.193v251.739c0,1.029-0.18,2.015-0.498,2.938L270.449,363.683L480.432,236.193z M461.126,497   H50.868l205.129-124.543L461.126,497z M32.062,490.869c-0.317-0.922-0.498-1.908-0.498-2.937V236.194l209.98,127.488   L32.062,490.869z M82.832,249.772l-43.993-26.71l43.993-25.139V249.772z" fill="#000000" data-original="#121212" class=""/>
	<path style="" d="M147.531,214.581c0-4.142-3.357-7.5-7.5-7.5s-7.5,3.358-7.5,7.5c0,15.256,10.618,28.07,24.85,31.462   v1.671c0,4.143,3.357,7.5,7.5,7.5s7.5-3.357,7.5-7.5v-1.671c14.232-3.393,24.85-16.206,24.85-31.462   c0-15.256-10.618-28.07-24.85-31.463V149.26c5.816,2.805,9.85,8.743,9.85,15.621c0,4.143,3.357,7.5,7.5,7.5s7.5-3.357,7.5-7.5   c0-15.256-10.618-28.07-24.85-31.462v-1.669c0-4.143-3.357-7.5-7.5-7.5s-7.5,3.357-7.5,7.5v1.669   c-14.232,3.393-24.85,16.206-24.85,31.462c0,15.256,10.618,28.07,24.85,31.462v33.859   C151.564,227.397,147.531,221.459,147.531,214.581z M182.23,214.581c0,6.878-4.033,12.816-9.85,15.621V198.96   C178.197,201.764,182.23,207.703,182.23,214.581z M147.531,164.88c0-6.878,4.033-12.816,9.85-15.621V180.5   C151.564,177.696,147.531,171.758,147.531,164.88z" fill="#000000" data-original="#121212" class=""/>
	<path style="" d="M371.965,132.53H222.863c-4.143,0-7.5,3.357-7.5,7.5s3.357,7.5,7.5,7.5h149.102   c4.143,0,7.5-3.357,7.5-7.5C379.465,135.888,376.107,132.53,371.965,132.53z" fill="#000000" data-original="#121212" class=""/>
	<path style="" d="M371.965,182.23H222.863c-4.143,0-7.5,3.357-7.5,7.5c0,4.142,3.357,7.5,7.5,7.5h149.102   c4.143,0,7.5-3.358,7.5-7.5C379.465,185.587,376.107,182.23,371.965,182.23z" fill="#000000" data-original="#121212" class=""/>
	<path style="" d="M371.965,231.929H222.863c-4.143,0-7.5,3.357-7.5,7.5s3.357,7.5,7.5,7.5h149.102   c4.143,0,7.5-3.357,7.5-7.5S376.107,231.929,371.965,231.929z" fill="#000000" data-original="#121212" class=""/>
	<path style="" d="M322.265,33.132H189.731c-4.143,0-7.5,3.357-7.5,7.5v33.134c0,4.143,3.357,7.5,7.5,7.5h132.533   c4.143,0,7.5-3.357,7.5-7.5V40.632C329.765,36.489,326.407,33.132,322.265,33.132z M314.765,66.266H197.231V48.132h117.533v18.134   H314.765z" fill="#000000" data-original="#121212" class=""/>
</g>
<g xmlns="http://www.w3.org/2000/svg">
</g>
<g xmlns="http://www.w3.org/2000/svg">
</g>
<g xmlns="http://www.w3.org/2000/svg">
</g>
<g xmlns="http://www.w3.org/2000/svg">
</g>
<g xmlns="http://www.w3.org/2000/svg">
</g>
<g xmlns="http://www.w3.org/2000/svg">
</g>
<g xmlns="http://www.w3.org/2000/svg">
</g>
<g xmlns="http://www.w3.org/2000/svg">
</g>
<g xmlns="http://www.w3.org/2000/svg">
</g>
<g xmlns="http://www.w3.org/2000/svg">
</g>
<g xmlns="http://www.w3.org/2000/svg">
</g>
<g xmlns="http://www.w3.org/2000/svg">
</g>
<g xmlns="http://www.w3.org/2000/svg">
</g>
<g xmlns="http://www.w3.org/2000/svg">
</g>
<g xmlns="http://www.w3.org/2000/svg">
</g>
</g></svg>
