<?xml version="1.0"?>
<svg xmlns="http://www.w3.org/2000/svg" xmlns:xlink="http://www.w3.org/1999/xlink" xmlns:svgjs="http://svgjs.com/svgjs" version="1.1" width="512" height="512" x="0" y="0" viewBox="0 0 512 512" style="enable-background:new 0 0 512 512" xml:space="preserve" class=""><g>
<g xmlns="http://www.w3.org/2000/svg">
	<g>
		<path d="M135.548,3.128c-4.165-4.166-10.919-4.167-15.085-0.002L3.13,120.459l15.083,15.083l99.125-99.125v70.251    c0,5.891-4.776,10.667-10.667,10.667h-32v21.333h32c17.673,0,32-14.327,32-32v-96C138.67,7.839,137.547,5.127,135.548,3.128z" fill="#eeeeeeee" data-original="#000000" style="" class=""/>
	</g>
</g>
<g xmlns="http://www.w3.org/2000/svg">
	<g>
		<path d="M362.671,277.333v-224C362.636,23.893,338.778,0.035,309.338,0H128.004c-2.829,0.001-5.541,1.125-7.541,3.125    L3.13,120.459c-2,2-3.125,4.713-3.125,7.541v330.667C0.04,488.107,23.897,511.965,53.338,512h256    c29.441-0.035,53.298-23.893,53.333-53.333V416h-21.333v42.667c0,17.673-14.327,32-32,32h-256c-17.673,0-32-14.327-32-32V132.416    L132.42,21.333h176.917c17.673,0,32,14.327,32,32v224H362.671z" fill="#eeeeeeee" data-original="#000000" style="" class=""/>
	</g>
</g>
<g xmlns="http://www.w3.org/2000/svg">
	<g>
		<path d="M502.746,201.259c-12.505-11.932-32.178-11.932-44.683,0l-148,148c-4.164,4.165-4.164,10.917,0,15.083l29.6,29.6    c2,2.001,4.713,3.125,7.541,3.125c2.829-0.001,5.541-1.125,7.541-3.125l148-148C515.079,233.6,515.079,213.6,502.746,201.259z     M487.663,230.859L347.204,371.317L332.687,356.8l140.469-140.459c4.06-3.874,10.447-3.874,14.507,0    c0.002,0.002,0.004,0.004,0.006,0.006C491.674,220.356,491.672,226.853,487.663,230.859z" fill="#eeeeeeee" data-original="#000000" style="" class=""/>
	</g>
</g>
<g xmlns="http://www.w3.org/2000/svg">
	<g>
		<path d="M342.404,376.853l-30.549,15.264l15.285-30.581L308.058,352l-29.6,59.232c-0.741,1.482-1.126,3.116-1.125,4.773    c0.003,5.891,4.781,10.664,10.672,10.662c1.65,0.018,3.283-0.347,4.768-1.067l59.232-29.664L342.404,376.853z" fill="#eeeeeeee" data-original="#000000" style="" class=""/>
	</g>
</g>
<g xmlns="http://www.w3.org/2000/svg">
	<g>
		<rect x="454.94" y="217.49" transform="matrix(0.7072 -0.707 0.707 0.7072 -32.2313 399.0236)" width="21.333" height="41.867" fill="#eeeeeeee" data-original="#000000" style="" class=""/>
	</g>
</g>
<g xmlns="http://www.w3.org/2000/svg">
	<g>
		<rect x="74.671" y="405.333" width="213.333" height="21.333" fill="#eeeeeeee" data-original="#000000" style="" class=""/>
	</g>
</g>
<g xmlns="http://www.w3.org/2000/svg">
	<g>
		<path d="M224.004,192h-64c-17.673,0-32,14.327-32,32s14.327,32,32,32h64v-21.333h-64c-5.891,0-10.667-4.776-10.667-10.667    s4.776-10.667,10.667-10.667h64c5.891,0,10.667,4.776,10.667,10.667h21.333C256.004,206.327,241.677,192,224.004,192z" fill="#eeeeeeee" data-original="#000000" style="" class=""/>
	</g>
</g>
<g xmlns="http://www.w3.org/2000/svg">
	<g>
		<path d="M224.004,234.667h-64V256h64c5.891,0,10.667,4.776,10.667,10.667c0,5.891-4.776,10.667-10.667,10.667h-64    c-5.891,0-10.667-4.776-10.667-10.667h-21.333c0,17.673,14.327,32,32,32h64c17.673,0,32-14.327,32-32    C256.004,248.994,241.677,234.667,224.004,234.667z" fill="#eeeeeeee" data-original="#000000" style="" class=""/>
	</g>
</g>
<g xmlns="http://www.w3.org/2000/svg">
	<g>
		<rect x="181.338" y="170.667" width="21.333" height="32" fill="#eeeeeeee" data-original="#000000" style="" class=""/>
	</g>
</g>
<g xmlns="http://www.w3.org/2000/svg">
	<g>
		<rect x="181.338" y="288" width="21.333" height="32" fill="#eeeeeeee" data-original="#000000" style="" class=""/>
	</g>
</g>
<g xmlns="http://www.w3.org/2000/svg">
	<g>
		<rect x="74.671" y="352" width="202.667" height="21.333" fill="#eeeeeeee" data-original="#000000" style="" class=""/>
	</g>
</g>
<g xmlns="http://www.w3.org/2000/svg">
	<g>
		<path d="M288.004,42.667h-21.333V64h21.333c5.891,0,10.667,4.776,10.667,10.667V96h21.333V74.667    C320.004,56.994,305.677,42.667,288.004,42.667z" fill="#eeeeeeee" data-original="#000000" style="" class=""/>
	</g>
</g>
<g xmlns="http://www.w3.org/2000/svg">
	<g>
		<rect x="224.004" y="42.667" width="21.333" height="21.333" fill="#eeeeeeee" data-original="#000000" style="" class=""/>
	</g>
</g>
<g xmlns="http://www.w3.org/2000/svg">
</g>
<g xmlns="http://www.w3.org/2000/svg">
</g>
<g xmlns="http://www.w3.org/2000/svg">
</g>
<g xmlns="http://www.w3.org/2000/svg">
</g>
<g xmlns="http://www.w3.org/2000/svg">
</g>
<g xmlns="http://www.w3.org/2000/svg">
</g>
<g xmlns="http://www.w3.org/2000/svg">
</g>
<g xmlns="http://www.w3.org/2000/svg">
</g>
<g xmlns="http://www.w3.org/2000/svg">
</g>
<g xmlns="http://www.w3.org/2000/svg">
</g>
<g xmlns="http://www.w3.org/2000/svg">
</g>
<g xmlns="http://www.w3.org/2000/svg">
</g>
<g xmlns="http://www.w3.org/2000/svg">
</g>
<g xmlns="http://www.w3.org/2000/svg">
</g>
<g xmlns="http://www.w3.org/2000/svg">
</g>
</g></svg>
