<svg xmlns="http://www.w3.org/2000/svg" xmlns:xlink="http://www.w3.org/1999/xlink" width="728.701" height="433" viewBox="0 0 728.701 433">
  <defs>
    <radialGradient id="radial-gradient" cx="0.5" cy="0.5" r="0.5" gradientUnits="objectBoundingBox">
      <stop offset="0" stop-color="#a4a4a4"/>
      <stop offset="1" stop-color="#f6f7fc" stop-opacity="0"/>
    </radialGradient>
    <clipPath id="clip-path">
      <rect id="Rectangle_46" data-name="Rectangle 46" width="629" height="424.345" fill="none"/>
    </clipPath>
  </defs>
  <g id="Group_1355" data-name="Group 1355" transform="translate(-637 -248)">
    <path id="Path_1078" data-name="Path 1078" d="M241.466,0V96.117H195.977V33.272h-59.6v80.6H114.6V27.435H97.3v86.442H79.355v23.129H32.9V90.388H0V369.906H679.846V106.566H655.859V138.42H627.93V76.8H584.748v47.19H530.136v-49H460.213V91.578H426.8V45.331H391.017v49.2H333.35v68.2H287.211V0Z" transform="translate(685.855 279.094)" fill="#f6f7fc"/>
    <ellipse id="Ellipse_1" data-name="Ellipse 1" cx="66" cy="9" rx="66" ry="9" transform="translate(651 663)" fill="url(#radial-gradient)"/>
    <ellipse id="Ellipse_2" data-name="Ellipse 2" cx="102.5" cy="9" rx="102.5" ry="9" transform="translate(788 663)" fill="url(#radial-gradient)"/>
    <ellipse id="Ellipse_3" data-name="Ellipse 3" cx="70.5" cy="9" rx="70.5" ry="9" transform="translate(1160 663)" fill="url(#radial-gradient)"/>
    <g id="Group_1223" data-name="Group 1223" transform="translate(637 248.005)">
      <g id="Group_1222" data-name="Group 1222" transform="translate(0 -0.005)" clip-path="url(#clip-path)">
        <path id="Path_2291" data-name="Path 2291" d="M729.767,0s-39.045-1.91-18.332,117.09c0,0,13.934,40.394-3.656,66.428H966.719V0Z" transform="translate(-452.755 0.005)" fill="#afcdfb"/>
        <rect id="Rectangle_42" data-name="Rectangle 42" width="270.34" height="352.561" transform="translate(293.431 70.437)" fill="#9abcef"/>
        <rect id="Rectangle_43" data-name="Rectangle 43" width="265.796" height="352.561" transform="translate(302.269 70.437)" fill="#e9f3fe"/>
        <path id="Path_2292" data-name="Path 2292" d="M1068.832,70.428l0,0h-265.8c1.471-20.1-.744-34.695-4.294-45.191C791.922,5.06,780.174,0,780.174,0h250.671c21.395,0,37.984,12.889,42.5,30,.168.644.325,1.284.462,1.925,4.286,19.573-4.8,38.152-4.974,38.509" transform="translate(-500.764 0.004)" fill="#e9f3fe"/>
        <path id="Path_2293" data-name="Path 2293" d="M1102.1,115.673l0,0H836.3c1.47-20.1-.744-34.695-4.294-45.191,27.163,4.974,94.439,15.573,166.449,13.788,46.586-1.156,83.4-4.273,108.619-7.11,4.286,19.573-4.8,38.152-4.974,38.509" transform="translate(-534.035 -45.241)" fill="#d8e8fd"/>
        <path id="Path_2294" data-name="Path 2294" d="M1132.779,411.819H991.823a2.639,2.639,0,0,1-2.631-2.632v-1.349a2.638,2.638,0,0,1,2.631-2.631h140.956a2.639,2.639,0,0,1,2.631,2.631v1.349a2.64,2.64,0,0,1-2.631,2.632" transform="translate(-634.925 -260.085)" fill="#bbd5fc"/>
        <path id="Path_2295" data-name="Path 2295" d="M1078.222,442.879H991.268a2.083,2.083,0,0,1-2.077-2.077v-2.458a2.083,2.083,0,0,1,2.077-2.077h86.954a2.083,2.083,0,0,1,2.077,2.077V440.8a2.084,2.084,0,0,1-2.077,2.077" transform="translate(-634.924 -280.022)" fill="#bbd5fc"/>
        <path id="Path_2296" data-name="Path 2296" d="M1132.779,606.241H991.823a2.639,2.639,0,0,1-2.631-2.631V602.26a2.639,2.639,0,0,1,2.631-2.631h140.956a2.639,2.639,0,0,1,2.631,2.631v1.349a2.639,2.639,0,0,1-2.631,2.631" transform="translate(-634.925 -384.877)" fill="#d2e4fd"/>
        <path id="Path_2297" data-name="Path 2297" d="M1078.222,637.3H991.268a2.083,2.083,0,0,1-2.077-2.077v-2.458a2.083,2.083,0,0,1,2.077-2.077h86.954a2.084,2.084,0,0,1,2.077,2.077v2.458a2.083,2.083,0,0,1-2.077,2.077" transform="translate(-634.924 -404.814)" fill="#d2e4fd"/>
        <path id="Path_2298" data-name="Path 2298" d="M1132.779,768.424H991.823a2.639,2.639,0,0,1-2.631-2.631v-1.349a2.639,2.639,0,0,1,2.631-2.632h140.956a2.639,2.639,0,0,1,2.631,2.632v1.349a2.639,2.639,0,0,1-2.631,2.631" transform="translate(-634.925 -488.977)" fill="#d2e4fd"/>
        <path id="Path_2299" data-name="Path 2299" d="M1078.222,799.485H991.268a2.083,2.083,0,0,1-2.077-2.077V794.95a2.083,2.083,0,0,1,2.077-2.077h86.954a2.083,2.083,0,0,1,2.077,2.077v2.458a2.083,2.083,0,0,1-2.077,2.077" transform="translate(-634.924 -508.913)" fill="#d2e4fd"/>
        <path id="Path_2300" data-name="Path 2300" d="M998.006,400.965c-28.955,0-56.432-3.634-76.916-8.827-20.695-5.247-31.842-13.823-31.842-21.429,0-6.894,9.085-13.234,26.272-18.336-16.471,4.889-25.28,12.069-25.28,18.336,0,6.955,11.418,13.839,31.326,18.886,20.412,5.175,47.559,8.025,76.439,8.025s56.027-2.85,76.44-8.025c19.908-5.048,31.326-11.932,31.326-18.886,0-7.365-12.023-16.519-31.378-23.888-22.006-8.38-49.135-11.489-76.388-11.489-51.164,0-72.226,5.973-90.5,13.457,18.353-7.517,39.154-16.037,90.5-16.037,27.362,0,54.607,4.637,76.717,13.055,19.763,7.526,32.04,17.067,32.04,24.9,0,7.606-11.4,14.684-32.092,19.931-20.484,5.193-47.711,10.324-76.666,10.324" transform="translate(-570.775 -213.58)" fill="#c65447"/>
        <path id="Path_2301" data-name="Path 2301" d="M1662.955,709.341s-.953,9.269-2,11.022-5.5,7.356-7.4,8.456,1.159-7.382.772-9.033-1.562,3.012-2.4,3.121-.621-4.087-.651-5.614,4.069-5.3,5.514-8.549,6.16.6,6.16.6" transform="translate(-1059.892 -454.077)" fill="#ffb27d"/>
        <path id="Path_2302" data-name="Path 2302" d="M1338.051,445.273l-2.13-4.019s1.057-7.163-7.918-11.694c0,0-3.28-1.336-5.132,1.34-1.705,2.464,3.25,2.019,2.984,6.234a7.752,7.752,0,0,0,4.52,8.062l2.3,2.667Z" transform="translate(-848.871 -275.502)" fill="#ffb27d"/>
        <path id="Path_2303" data-name="Path 2303" d="M1435.262,444.714s-7.707,37.828-50.12,50.188c-13.24,3.859-43.318-39.73-43.318-39.73s1.058-4.019,7.682-3.1c0,0,29.286,19.388,32.974,21.5,3.272,1.868,24.787-24.025,34.595-28.2a25.034,25.034,0,0,1,18.187-.656" transform="translate(-861.266 -284.553)" fill="#e58638"/>
        <rect id="Rectangle_44" data-name="Rectangle 44" width="7.922" height="39.849" transform="translate(459.934 160.553) rotate(-81.27)" fill="#c65447"/>
        <path id="Path_2304" data-name="Path 2304" d="M1260.348,428.937l8.556,5.322,1.2-7.83Z" transform="translate(-808.97 -273.706)" fill="#ffb27d"/>
        <path id="Path_2305" data-name="Path 2305" d="M1399.6,446.62l-.38,2.476a2.789,2.789,0,0,1-3.181,2.333l-1.822-.28,1.2-7.83,1.982.3a2.628,2.628,0,0,1,2.2,3" transform="translate(-894.893 -284.548)" fill="#ffb27d"/>
        <path id="Path_2306" data-name="Path 2306" d="M1709.949,1107.118s5.261,4.8,4.235,8.214-5.775,5.686-6.417,9.856-3.208,6.445-5.518,6.445h-11.013s-1.7-2.934,2.407-3.819,5.655-5.784,5.4-10.333a80.174,80.174,0,0,1,.385-10.615l8.727-2.022Z" transform="translate(-1085.316 -709.155)" fill="#233862"/>
        <path id="Path_2307" data-name="Path 2307" d="M1508.441,1138.292s.944,10.928-1.366,12.065l-29.562-.06s0-3.412,4.748-4.171,13.09-3.538,14.5-9.73,11.678,1.9,11.678,1.9" transform="translate(-948.36 -727.91)" fill="#233862"/>
        <path id="Path_2308" data-name="Path 2308" d="M1494.18,710.092s1.559,19.155,3.392,42.181c2.491,31.278,5.486,69.7,5.782,76.977.512,12.639,2.568,32.856,2.568,32.856s4.874,4.8,14.63,2.779c0,0,8.693-28.86,11.177-59.4.038-.5.077-1,.116-1.509,2.31-31.085,5.9-96.542,5.9-96.542Z" transform="translate(-959.058 -454.077)" fill="#2b478b"/>
        <path id="Path_2309" data-name="Path 2309" d="M1494.18,710.092s1.559,19.155,3.392,42.181l34.157,53.216c.038-.5.077-1,.116-1.509,2.31-31.085,5.9-96.542,5.9-96.542Z" transform="translate(-959.058 -454.077)" fill="#233862"/>
        <path id="Path_2310" data-name="Path 2310" d="M1514.063,698.779s28.105,69.373,46.584,101.975,24.256,41.7,24.256,41.7,10.587-4.171,11.55-7.013c0,0-7.067-62.938-19.443-78.281-6.993-8.67-15.207-34.687-15.592-43.785s-2.5-27.1-2.5-27.1Z" transform="translate(-971.82 -440.488)" fill="#2b478b"/>
        <path id="Path_2311" data-name="Path 2311" d="M1563.584,381.39s-19.016,9.175-29.979,5.771a25.877,25.877,0,0,1,7.421-5.937c-.38-2.2-.675-4.11-.844-5.729a52.979,52.979,0,0,1-.463-5.854l7.336-5.771,6.957-5.522c-.548,15.527,9.572,23.042,9.572,23.042" transform="translate(-984.363 -230.008)" fill="#ffb27d"/>
        <path id="Path_2312" data-name="Path 2312" d="M1545.467,512.909c.042,1.162-2.445,2.49-3.542,2.989-8.138,3.57-15.727,6.062-24.329,6.892-10.162,1.038-22.178-1.246-26.31-1.163a1.72,1.72,0,0,1-1.139-.457c-.295-.208-.506-12.455-.295-27.857,0-.623,0-1.246.042-1.869v-.207c.085-6.02.295-12.33.591-18.641.59-13.867,1.686-27.236,3.541-34.625,2.235-8.719,7.295-14.49,11.89-18.683l3.8-3.322a18.232,18.232,0,0,0,11.806-1.41c4.385-2.118,9.107-4.4,9.867-3.821,5.734,4.193,9.613,13.618,11.679,25.658a133.457,133.457,0,0,1,1.729,22.834c0,2.989-.084,6.061-.253,9.093a286.684,286.684,0,0,0,.591,38.984c.169,2.408.295,4.276.337,5.605" transform="translate(-956.225 -263.574)" fill="#ee9849"/>
        <path id="Path_2313" data-name="Path 2313" d="M1584.934,558.3c-66.589-.133-12.282-72.256-12.282-72.256l10.788-3.5a209.648,209.648,0,0,1,1.25,24.4c0,3.194-.061,6.476-.183,9.714-.731,17.565,0,32.824.427,41.65" transform="translate(-996.03 -309.724)" fill="#e58638"/>
        <path id="Path_2314" data-name="Path 2314" d="M1565.1,374.181s-4.807,8.76-13.957,11.21a52.979,52.979,0,0,1-.463-5.854l7.336-5.771Z" transform="translate(-995.321 -239.904)" fill="#ed985f"/>
        <path id="Path_2315" data-name="Path 2315" d="M1534.991,336.211s18.141,2.968,19.843-8.185,5.191-18.28-6.319-20.646-14.416,1.555-15.9,5.141-2.3,22.63,2.379,23.689" transform="translate(-982.981 -196.832)" fill="#ffb27d"/>
        <path id="Path_2316" data-name="Path 2316" d="M1550.922,293.9c.165-.188.544-.341,1.39-.387a3.43,3.43,0,0,0-1.579-.445c-.177-1.175-.8-3.256-2.826-3.762a2.537,2.537,0,0,1,1.229,1.83c-2.343-2.407-7.364-4.158-21.267-3.061-18.322,1.446-12.283,13.177-9.912,14.576s8.343-2.435,12.762-2.085,5.26,6.737,6.76,7.613.91-.673,2.938-1.59,2.222,2.444,1.635,4.63,2.2,5.069,2.2,5.069l2.817-3.034c2.816-3.033,5.471-15.882,4.191-18.62-.113-.242-.225-.487-.34-.733" transform="translate(-972.475 -184.689)" fill="#2c3a64"/>
        <path id="Path_2317" data-name="Path 2317" d="M1590.378,410.642s11.478,5.435,16.981,13.791c8.536,12.96,18.431,60.2,18.614,64.571s-7.222,35.255-7.222,35.255-7.51-.5-9.448-4.285c0,0,1.5-31.729.55-33.769s-31.309-42.562-27.9-51.209,8.421-24.354,8.421-24.354" transform="translate(-1015.227 -263.574)" fill="#ee9849"/>
        <path id="Path_2318" data-name="Path 2318" d="M1349.805,449.148s.624-2.465-1.086-3.574-3.284-4.122-4.005-3.714c-1.493.846.818,3.475.4,6.756-.148,1.149,2.526,4.158,4.7.531" transform="translate(-862.794 -283.587)" fill="#ffb27d"/>
        <path id="Path_2319" data-name="Path 2319" d="M1121.4,959.882H957.957a1.989,1.989,0,0,1,0-3.978H1121.4a1.989,1.989,0,1,1,0,3.978" transform="translate(-613.6 -613.557)" fill="#d2e4fd"/>
        <path id="Path_2320" data-name="Path 2320" d="M1121.4,982.112H957.957a1.989,1.989,0,0,1,0-3.978H1121.4a1.989,1.989,0,0,1,0,3.978" transform="translate(-613.6 -627.825)" fill="#d2e4fd"/>
        <path id="Path_2321" data-name="Path 2321" d="M1121.4,1006.747H957.957a1.989,1.989,0,0,1,0-3.978H1121.4a1.989,1.989,0,1,1,0,3.978" transform="translate(-613.6 -643.638)" fill="#d2e4fd"/>
        <path id="Path_2322" data-name="Path 2322" d="M1099.943,1031.381H957.824a1.862,1.862,0,0,1-1.856-1.857v-.265a1.862,1.862,0,0,1,1.856-1.856h142.118a1.862,1.862,0,0,1,1.857,1.856v.265a1.862,1.862,0,0,1-1.857,1.857" transform="translate(-613.6 -659.449)" fill="#d2e4fd"/>
        <rect id="Rectangle_45" data-name="Rectangle 45" width="2.97" height="16.23" transform="translate(324.92 86.639)" fill="#bbd5fc"/>
        <path id="Path_2323" data-name="Path 2323" d="M934.158,256.175a5.222,5.222,0,0,1,.99,3.476v6.907H932.27v-6.746a2.986,2.986,0,0,0-.495-1.911,1.9,1.9,0,0,0-1.554-.6,2.627,2.627,0,0,0-1.991.783,2.905,2.905,0,0,0-.749,2.1v6.377H924.6V255.3h2.809v1.681a3.891,3.891,0,0,1,1.542-1.45,4.643,4.643,0,0,1,2.187-.506,3.763,3.763,0,0,1,3.016,1.151" transform="translate(-593.468 -163.688)" fill="#bbd5fc"/>
        <path id="Path_2324" data-name="Path 2324" d="M970.089,255.859l-4.927,11.234h-2.509l-4.88-11.234h3.039l3.177,7.942,3.269-7.942Z" transform="translate(-614.758 -164.225)" fill="#bbd5fc"/>
        <path id="Path_2325" data-name="Path 2325" d="M996.5,266.028a4.93,4.93,0,0,1-2.014-2.049,6.493,6.493,0,0,1-.714-3.108,6.428,6.428,0,0,1,.714-3.1,4.953,4.953,0,0,1,2.014-2.037,6.78,6.78,0,0,1,6.055,0,4.89,4.89,0,0,1,2,2.037,6.516,6.516,0,0,1,.7,3.1,6.582,6.582,0,0,1-.7,3.108,4.868,4.868,0,0,1-2,2.049,6.777,6.777,0,0,1-6.055,0m5.145-2.44a5.356,5.356,0,0,0,0-5.421,2.54,2.54,0,0,0-2.118-.932,2.572,2.572,0,0,0-2.13.932,5.321,5.321,0,0,0-.012,5.421,2.553,2.553,0,0,0,2.118.921,2.58,2.58,0,0,0,2.141-.921" transform="translate(-637.863 -163.688)" fill="#bbd5fc"/>
        <path id="Path_2326" data-name="Path 2326" d="M1035.193,244.035h-3.177V241.2h3.177Zm-3.016,2.394h2.878v11.258h-2.878Z" transform="translate(-662.412 -154.817)" fill="#bbd5fc"/>
        <path id="Path_2327" data-name="Path 2327" d="M1049.739,266.028a4.825,4.825,0,0,1-1.992-2.026,7.051,7.051,0,0,1,.035-6.158,5.084,5.084,0,0,1,2.06-2.083,6.278,6.278,0,0,1,3.085-.737,7.344,7.344,0,0,1,2.337.38,4.931,4.931,0,0,1,1.83,1.025l-.828,2.026a5.483,5.483,0,0,0-1.508-.875,4.461,4.461,0,0,0-1.577-.3,2.949,2.949,0,0,0-2.325.932,3.911,3.911,0,0,0-.829,2.682,3.871,3.871,0,0,0,.829,2.658,2.948,2.948,0,0,0,2.325.933,4.444,4.444,0,0,0,1.577-.3,5.472,5.472,0,0,0,1.508-.875l.828,2a5.188,5.188,0,0,1-1.887,1.048,7.594,7.594,0,0,1-2.395.38,6.288,6.288,0,0,1-3.073-.714" transform="translate(-672.066 -163.688)" fill="#bbd5fc"/>
        <path id="Path_2328" data-name="Path 2328" d="M1088.924,261.447h-7.666a3.5,3.5,0,0,0,.944,2.325,3.227,3.227,0,0,0,2.3.76,5.43,5.43,0,0,0,3.407-1.2l.829,1.98a6.049,6.049,0,0,1-1.968,1.036,7.569,7.569,0,0,1-2.383.391,5.968,5.968,0,0,1-4.363-1.565,5.716,5.716,0,0,1-1.6-4.282,6.569,6.569,0,0,1,.69-3.062,5.021,5.021,0,0,1,1.945-2.071,5.506,5.506,0,0,1,2.843-.737,4.693,4.693,0,0,1,3.672,1.5,5.937,5.937,0,0,1,1.347,4.121Zm-6.8-3.661a3.577,3.577,0,0,0-.863,2.118h5.2a3.285,3.285,0,0,0-.69-2.13,2.279,2.279,0,0,0-1.8-.725,2.441,2.441,0,0,0-1.853.737" transform="translate(-692.201 -163.688)" fill="#bbd5fc"/>
        <path id="Path_2329" data-name="Path 2329" d="M1200.942,1023.251h.124a1.3,1.3,0,0,0,1.3-1.329l-1.97-85.382-5.8-.677,4.948,86.065a1.4,1.4,0,0,0,1.4,1.323" transform="translate(-766.763 -600.693)" fill="#b0d4ff"/>
        <path id="Path_2330" data-name="Path 2330" d="M1295.36,1023.251h.124a1.3,1.3,0,0,0,1.3-1.329l-1.97-85.382-5.8-.677,4.948,86.065a1.4,1.4,0,0,0,1.4,1.323" transform="translate(-827.367 -600.693)" fill="#95c0f4"/>
        <path id="Path_2331" data-name="Path 2331" d="M1043.647,1023.251h-.124a1.3,1.3,0,0,1-1.3-1.329l1.97-85.382,5.8-.677-4.948,86.065a1.4,1.4,0,0,1-1.4,1.323" transform="translate(-668.964 -600.693)" fill="#b0d4ff"/>
        <path id="Path_2332" data-name="Path 2332" d="M1175.112,784.7V726.193a18.641,18.641,0,0,0-18.641-18.641h-42.154a18.641,18.641,0,0,0-18.641,18.641v60.743Z" transform="translate(-703.274 -454.149)" fill="#b0d4ff"/>
        <path id="Path_2333" data-name="Path 2333" d="M1074.589,932.2h81.39a5.6,5.6,0,0,0,5.6-5.6v-3.64h-86.987Z" transform="translate(-689.738 -592.416)" fill="#95c0f4"/>
        <path id="Path_2334" data-name="Path 2334" d="M1039.938,932.2h61.575a4.139,4.139,0,0,0,4.138-4.139v-.959a4.139,4.139,0,0,0-4.138-4.139h-61.575a4.139,4.139,0,0,0-4.139,4.139v.959a4.139,4.139,0,0,0,4.139,4.139" transform="translate(-664.84 -592.416)" fill="#cae5ff"/>
        <path id="Path_2335" data-name="Path 2335" d="M521.821,1023.887H521.7a1.3,1.3,0,0,1-1.3-1.329l1.97-85.382,5.8-.677-4.948,86.065a1.4,1.4,0,0,1-1.4,1.323" transform="translate(-334.023 -601.102)" fill="#b0d4ff"/>
        <path id="Path_2336" data-name="Path 2336" d="M427.4,1023.887h-.124a1.3,1.3,0,0,1-1.3-1.329l1.97-85.382,5.8-.677-4.948,86.065a1.4,1.4,0,0,1-1.4,1.323" transform="translate(-273.42 -601.102)" fill="#95c0f4"/>
        <path id="Path_2337" data-name="Path 2337" d="M679.115,1023.887h.124a1.3,1.3,0,0,0,1.3-1.329l-1.97-85.382-5.8-.677,4.948,86.065a1.4,1.4,0,0,0,1.4,1.323" transform="translate(-431.822 -601.102)" fill="#b0d4ff"/>
        <path id="Path_2338" data-name="Path 2338" d="M419.217,785.337V726.829a18.641,18.641,0,0,1,18.641-18.641h42.154a18.641,18.641,0,0,1,18.64,18.641v60.743Z" transform="translate(-269.08 -454.557)" fill="#b0d4ff"/>
        <path id="Path_2339" data-name="Path 2339" d="M506.2,932.841h-81.39a5.6,5.6,0,0,1-5.6-5.6V923.6H506.2Z" transform="translate(-269.079 -592.825)" fill="#95c0f4"/>
        <path id="Path_2340" data-name="Path 2340" d="M571.565,932.841H509.99a4.139,4.139,0,0,1-4.139-4.139v-.959a4.139,4.139,0,0,1,4.139-4.139h61.575a4.139,4.139,0,0,1,4.139,4.139v.959a4.139,4.139,0,0,1-4.139,4.139" transform="translate(-324.687 -592.825)" fill="#b0d4ff"/>
        <path id="Path_2341" data-name="Path 2341" d="M601.6,879.811c-6.039,10.511-13.634,14.568-13.634,14.568h-31.6S606.2,871.793,601.6,879.811" transform="translate(-357.108 -563.61)" fill="#233862"/>
        <path id="Path_2342" data-name="Path 2342" d="M613.551,1062.988a2.921,2.921,0,0,0-.521,3.124.025.025,0,0,0,.008.016c.754,2.082,3.244,4.408,6.136,6.731.37.3.7.569.985.821.075.066.15.132.221.2.058.051.114.1.17.154,2.7,2.486,1.682,3.056,6.527,8.1,5.525,5.748,9.329,5.852,10.411,5.328.916-.446-.944-3.495-3.005-6.922-.1-.165-.2-.333-.3-.5-.275-.455-.547-.918-.82-1.375-2.415-4.124-1.795-6.059-1.222-12.2.465-4.988,7.759-27.864,7.759-27.864l-10.588-1.824s-3.189,18.216-6.7,21.022c-1.878,1.495-3.981,1.514-5.786,2.622q-.192.115-.376.237a13.881,13.881,0,0,0-2.9,2.328" transform="translate(-393.332 -665.467)" fill="#ffb27d"/>
        <path id="Path_2343" data-name="Path 2343" d="M613.551,1105.363a2.921,2.921,0,0,0-.521,3.124.025.025,0,0,0,.008.016c.923,2.08,3.35,4.394,6.146,6.709.365.3.687.582.974.842.075.066.15.132.221.2.058.051.114.1.17.154,2.7,2.486,1.682,3.056,6.527,8.1,5.525,5.748,9.329,5.852,10.411,5.328.916-.446-.944-3.495-3.005-6.922a23.547,23.547,0,0,1-9.848-7.257c-3.326-4.245-5.545-9.7-7.81-12.859q-.192.116-.376.237a13.882,13.882,0,0,0-2.9,2.328" transform="translate(-393.332 -707.842)" fill="#233862"/>
        <path id="Path_2344" data-name="Path 2344" d="M838.1,1050.6c.654,3.268,5.312,2.723,10.517,1.451s3.968.24,11.375-.579,9.651-3.582,9.877-4.684c.2-.977-3.458-1.322-7.384-1.774-.494-.055-.99-.116-1.486-.178-4.432-.556-7.678-3.416-11.7-5.765-3.814-2.225-9.505-11.29-9.505-11.29l-10.158.8s5.331,8.1,7.393,11.617c1.213,2.07,1.148,4.809,1,6.923a13.034,13.034,0,0,0,.078,3.475" transform="translate(-532.509 -659.692)" fill="#ffb27d"/>
        <path id="Path_2345" data-name="Path 2345" d="M863.514,1082.936c5.2-1.272,3.968.24,11.375-.579s9.651-3.582,9.877-4.683c.2-.978-3.458-1.322-7.383-1.774l-.036.076a20.886,20.886,0,0,1-10.608,3.3c-5.025.122-10.348-1.318-13.818-1.262a13.029,13.029,0,0,0,.078,3.475c.654,3.268,5.312,2.723,10.517,1.451" transform="translate(-547.407 -690.577)" fill="#233862"/>
        <path id="Path_2346" data-name="Path 2346" d="M682.116,880.943l-9.5,25.554-12.4,33.365a20.1,20.1,0,0,1-6.586-.6,28.579,28.579,0,0,1-6.37-3.1s3.443-35.825,9.865-56.39c1.646-5.279,3.49-9.548,5.526-11.952,9.956-11.766,19.46,13.125,19.46,13.125" transform="translate(-415.455 -554.99)" fill="#233862"/>
        <path id="Path_2347" data-name="Path 2347" d="M553,787.667c-6.221-2.007-23.966.57-41.79,4.059l-3.732-6.156-38.5-3.007s-12.7,28.174-5.749,46.126a6.51,6.51,0,0,0,6.516,4.386s.561,0,.563,0,22.914-.013,30.355-.013c19.147,0,40.521-13.162,43.287-13.715,4.526-.905,6.336,8.146,10.862,17.65s42.543,42.091,42.543,42.091,5.843.058,8.256-.847A8.128,8.128,0,0,0,609.15,876S567.025,792.192,553,787.667" transform="translate(-295.99 -502.296)" fill="#2b478b"/>
        <path id="Path_2348" data-name="Path 2348" d="M469.319,472.14c-4.932-2.59-12.436-2.94-13.655-3.1-14.589-1.961-23.37,19.239-23.887,25.662-.952,11.84-7.215,13.645-16.031,21.061-17.678,14.868-12.494,32.145-2.827,38.564,5.8,3.852,16.022,0,16.022,0,.145.1,27.957-15.548,41.668-23.1,20.553-2.922,11.28-52.486-1.289-59.086" transform="translate(-259.35 -300.973)" fill="#233862"/>
        <path id="Path_2349" data-name="Path 2349" d="M524.171,586.336c.061.039-6.746,2.363-11.3.347-4.281-1.892-7.524-8.936-7.461-8.94,1.948-.09,4.086-1.792,5.732-12.965l.829.3,13.944,5.017s-1.01,4.474-1.664,8.734c-.55,3.576-.846,7-.084,7.508" transform="translate(-324.405 -362.508)" fill="#ffb27d"/>
        <path id="Path_2350" data-name="Path 2350" d="M537.681,570.628s-1.01,4.474-1.664,8.734c-8.009-1.442-11.152-9.422-12.28-13.751Z" transform="translate(-336.167 -363.042)" fill="#ed975d"/>
        <path id="Path_2351" data-name="Path 2351" d="M537.255,531.876s-19.078-2.561-17.3-14.417.512-20.171,12.768-19.038,13.939,6.012,14.308,10.113-4.768,23.7-9.776,23.341" transform="translate(-333.664 -319.85)" fill="#ffb27d"/>
        <path id="Path_2352" data-name="Path 2352" d="M536.524,500.159s-12.212,10.524-20.519,11.373-11.452-1.818-11.452-1.818a32.439,32.439,0,0,0,7.843-10.626,5.839,5.839,0,0,1,4.816-3.443c5.931-.512,17.176-.746,19.313,4.514" transform="translate(-323.853 -317.972)" fill="#233862"/>
        <path id="Path_2353" data-name="Path 2353" d="M572.508,501.978s4.085,3.95,5.372,6.88c1.242,2.827,1.614,9.59.625,12.276,0,0,6.366-12.377,2.762-18.391-3.821-6.377-8.759-.765-8.759-.765" transform="translate(-367.471 -320.734)" fill="#233862"/>
        <path id="Path_2354" data-name="Path 2354" d="M510.894,636.87c-.577,38.618-.158,30.548-4.383,34.212-1.018.882-3.879,1.408-7.646,1.657-11.841.786-32.657-1.165-33.449-3.353-2.731-7.572-.8-9.924-3.082-21.517-.238-1.233-.531-2.568-.877-4.021-1.9-7.962-3.749-10.671,2.992-23.462,6.113-11.587,12.464-20.991,13.035-20.652,16.128,9.574,17.428,1.526,17.428,1.526s16.264,16.773,15.981,35.609" transform="translate(-295.064 -384.939)" fill="#fff"/>
        <path id="Path_2355" data-name="Path 2355" d="M672.619,933.577l-12.4,33.365a20.09,20.09,0,0,1-6.586-.6,28.559,28.559,0,0,1-6.37-3.1s3.443-35.825,9.865-56.39Z" transform="translate(-415.455 -582.071)" fill="#2b478b"/>
        <path id="Path_2356" data-name="Path 2356" d="M558.026,604.006s16.6,2.814,18.544,9.959,13.416,49.149,13.416,49.149-8.436,1.516-12.334-2.381-13.561-36.158-13.561-36.158Z" transform="translate(-358.176 -387.687)" fill="#fff"/>
        <path id="Path_2357" data-name="Path 2357" d="M503.59,730.2c-11.841.786-32.657-1.165-33.449-3.353-2.731-7.572-.8-9.924-3.082-21.517l5.711-16.083s-.944,17.909,4.337,22.62,21.625,9.093,24.192,13.028a14.409,14.409,0,0,1,2.29,5.3" transform="translate(-299.788 -442.399)" fill="#ebf3ff"/>
        <path id="Path_2358" data-name="Path 2358" d="M531.178,779.322s11.682-2.6,13.567-1.564,6.492,4.812,7.069,6.126-4.2-1-5.749-1.414c-1.005-.27-3.652.65-4.962,1.087-5.514,1.838-8.892.893-8.892.893Z" transform="translate(-340.943 -499.055)" fill="#ffb27d"/>
        <path id="Path_2359" data-name="Path 2359" d="M441.508,599.726s-15.686.966-21.117,8.54c-7.644,10.661-22.808,56.1-14.117,62.158,9.787,6.824,44.542,1.785,44.542,1.785s1.156-5.406-.453-8.021-27.76-6.839-28.967-8.046,15.087-23.535,15.087-27.156,5.024-29.259,5.024-29.259" transform="translate(-259.097 -384.94)" fill="#fff"/>
        <path id="Path_2360" data-name="Path 2360" d="M570.64,787.275s2.448,3.157,3.25,3.534a2.39,2.39,0,0,0,1.321.283l-1.649-2.969Z" transform="translate(-366.272 -505.32)" fill="#ffb27d"/>
        <path id="Path_2361" data-name="Path 2361" d="M569.061,778.2l7.117,3.456a1.27,1.27,0,0,1-1.179.456,16.983,16.983,0,0,1-3.087-.848Z" transform="translate(-365.259 -499.493)" fill="#ffb27d"/>
        <path id="Path_2362" data-name="Path 2362" d="M579.715,735.175h56.3l16.935-42.112H596.737Z" transform="translate(-372.097 -444.849)" fill="#f99746"/>
        <path id="Path_2363" data-name="Path 2363" d="M605.516,806.067H531.178v1.641h73.679Z" transform="translate(-340.943 -517.382)" fill="#ed7d2b"/>
        <path id="Path_2364" data-name="Path 2364" d="M687.422,747.052a1.95,1.95,0,0,0-1.912-2.68,3.84,3.84,0,0,0-3.449,2.68,1.95,1.95,0,0,0,1.912,2.68,3.841,3.841,0,0,0,3.449-2.68" transform="translate(-437.719 -477.782)" fill="#fff"/>
        <path id="Path_2365" data-name="Path 2365" d="M1385.647,965.572h.164a1.774,1.774,0,0,0,1.718-1.861l-2.605-119.546-7.673-.948,6.544,120.5a1.906,1.906,0,0,0,1.853,1.853" transform="translate(-884.005 -541.227)" fill="#78acea"/>
        <path id="Path_2366" data-name="Path 2366" d="M528.585,965.572h-.164a1.774,1.774,0,0,1-1.718-1.861l2.605-119.546,7.674-.948-6.544,120.5a1.906,1.906,0,0,1-1.853,1.853" transform="translate(-338.07 -541.227)" fill="#78acea"/>
        <path id="Path_2367" data-name="Path 2367" d="M829.345,826.15H501.023a4.87,4.87,0,0,1-4.87-4.87v-4.687a4.87,4.87,0,0,1,4.87-4.869H829.345a4.87,4.87,0,0,1,4.87,4.869v4.687a4.87,4.87,0,0,1-4.87,4.87" transform="translate(-318.462 -521.014)" fill="#78acea"/>
        <path id="Path_2368" data-name="Path 2368" d="M991.7,736.25h-56.3l-16.935-42.112h56.209Z" transform="translate(-589.534 -445.539)" fill="#2b478b"/>
        <path id="Path_2369" data-name="Path 2369" d="M963.918,807.143h74.338v1.641H964.578Z" transform="translate(-618.703 -518.073)" fill="#2b478b"/>
        <path id="Path_2370" data-name="Path 2370" d="M1005.246,748.127a1.95,1.95,0,0,1,1.912-2.68,3.841,3.841,0,0,1,3.449,2.68,1.95,1.95,0,0,1-1.912,2.68,3.84,3.84,0,0,1-3.449-2.68" transform="translate(-645.159 -478.472)" fill="#fff"/>
        <path id="Path_2371" data-name="Path 2371" d="M272.563,1127.888c.257,3.5,5.2,3.542,10.813,2.891s4.119.769,11.975.879,10.564-2.487,10.944-3.61c.339-1-3.445-1.834-7.493-2.82-.509-.123-1.02-.251-1.531-.379-4.564-1.161-7.586-4.577-11.492-7.56-3.7-2.825-8.469-13.051-8.469-13.051l-10.732-.484s4.519,9.166,6.217,13.118c1,2.324.573,5.18.139,7.372a13.761,13.761,0,0,0-.372,3.646" transform="translate(-171.106 -708.456)" fill="#ffae73"/>
        <path id="Path_2372" data-name="Path 2372" d="M294.063,1167.5c5.611-.651,4.119.769,11.975.879s10.564-2.487,10.944-3.61c.339-1-3.445-1.834-7.493-2.82l-.048.074a22.015,22.015,0,0,1-11.528,2.065c-5.273-.528-10.654-2.729-14.292-3.124a13.76,13.76,0,0,0-.372,3.646c.257,3.5,5.2,3.542,10.813,2.891" transform="translate(-181.795 -745.178)" fill="#1e3865"/>
        <path id="Path_2373" data-name="Path 2373" d="M76.293,1117.052c.254,3.5,5.2,3.547,10.81,2.9s4.119.773,11.974.89,10.566-2.477,10.948-3.6c.34-1-3.443-1.838-7.49-2.828-.509-.123-1.02-.253-1.53-.381-4.563-1.165-7.581-4.584-11.484-7.571-3.7-2.829,0-19.579,0-19.579l-11.8-1.149s.566,14.1.559,20.515c0,2.53-1.166,4.962-1.6,7.154a13.743,13.743,0,0,0-.376,3.645" transform="translate(-48.957 -696.892)" fill="#ffae73"/>
        <path id="Path_2374" data-name="Path 2374" d="M87.1,1169.543c5.611-.646,4.119.773,11.974.89s10.566-2.477,10.948-3.6c.341-1-3.443-1.838-7.49-2.828l-.048.074a22.018,22.018,0,0,1-11.53,2.053c-5.273-.534-10.651-2.74-14.288-3.138a13.741,13.741,0,0,0-.376,3.645c.254,3.5,5.2,3.548,10.81,2.9" transform="translate(-48.957 -746.481)" fill="#1e3865"/>
        <path id="Path_2375" data-name="Path 2375" d="M69.254,323.836c2.032-8.358-.914-12.25-3.571-14.323-1.261-3.076-2.7-5.293-4.171-6.129a15.05,15.05,0,0,0-8.146-1.559,3.81,3.81,0,0,1,1.718-.815c-1.395-.207-4.507,1.176-4.507,1.176-19.4-7.474-22.445,21.085-22.037,27.72s.351,14.449-9.741,19.676c-19.254,9.974,6.4,47.563,6.4,47.563-.489-5.361,24.25-33.656,37.157-42.13,3.142-4.626,4.259-12.8,4.342-13.441-.542,6.479-1.651,10.113-2.641,12.16,5.883-5.414,6.754-18.415,5.2-29.9" transform="translate(-7.469 -193.166)" fill="#b53c37"/>
        <path id="Path_2376" data-name="Path 2376" d="M118.373,418.842c.064.029-6.232,3.3-10.968,2-4.455-1.215-7.366-6.991-7.3-7,1.887-.375,2.431-2.968,2.391-14.108l.853.168,14.341,2.84s-.327,4.513-.336,8.765c-.01,3.57.207,6.955,1.024,7.337" transform="translate(-64.25 -256.572)" fill="#ffae73"/>
        <path id="Path_2377" data-name="Path 2377" d="M123.5,403.042s-.326,4.513-.336,8.765c-8.025-.226-12.267-7.547-14-11.6Z" transform="translate(-70.065 -256.873)" fill="#f9924f"/>
        <path id="Path_2378" data-name="Path 2378" d="M164.1,834.445a3.519,3.519,0,0,1-3.189,4.584l-5.6.262-5.928.182a4.76,4.76,0,0,1-3.837-1.751,166.674,166.674,0,0,1-28.131-53.261q-.373-1.182-.788-2.394c-5.834-17.013-17.93-38.367-24.3-57.7-1.015-3.079-1.926-5.977-2.743-8.719-.262-.878-.517-1.741-.759-2.591a205,205,0,0,1-7.311-38.487l46.027.368s9.69,75.314,36.565,159.5" transform="translate(-52.317 -432.981)" fill="#214d9a"/>
        <path id="Path_2379" data-name="Path 2379" d="M100.856,494.85c-.116,21.9,3.213,31.3,3.213,31.3a61.848,61.848,0,0,1-43.129,2.642c-.276-.087-6.434-36.186-5.847-39.451a69.439,69.439,0,0,0,.57-18.35,147.236,147.236,0,0,0-5.68-28.817c6.382-1.452,12.358-4,19-6.494,1.528,1.9,6.2,3.893,10.25,3.8,4.665-.1,6.179-2.1,5.936-4.28,4.972,2.766,8.939,5.38,8.939,5.38,4.226,7.34,12.8,14.468,13.416,25.727.154,2.769-6.665,27.928-6.669,28.542" transform="translate(-32.082 -279.337)" fill="#cee2ff"/>
        <path id="Path_2380" data-name="Path 2380" d="M53.788,540.353c-2.012,2.848-5.87,20.155-15.467,22.331,4.946-12.335,8.7-17.744,9.287-21.537a93.557,93.557,0,0,0,.569-21.315c3.212-5.631,5.61-9.491,5.61-9.491.252-.91,5.105-15.916,6.66-2.5s-4.413,29.33-6.66,32.515" transform="translate(-24.597 -322.399)" fill="#4b9ba9"/>
        <path id="Path_2381" data-name="Path 2381" d="M172.593,445.726s6.828,3.705,9.706,7.362,19.738,33.952,19.738,36.984-17.109,1.051-17.109,1.051Z" transform="translate(-110.781 -286.093)" fill="#ff912b"/>
        <path id="Path_2382" data-name="Path 2382" d="M122.251,361.952s-18.987.313-19-11.514-2.473-19.752,9.65-20.452,14.482,3.811,15.447,7.757-1.158,23.823-6.1,24.209" transform="translate(-66.136 -211.758)" fill="#ffae73"/>
        <path id="Path_2383" data-name="Path 2383" d="M110.607,325s-5.2,13.876-13.177,15.927-11.439-.086-11.439-.086a22.591,22.591,0,0,0,7.389-13.347s13.3-9.1,17.226-2.494" transform="translate(-55.194 -207.06)" fill="#b53c37"/>
        <path id="Path_2384" data-name="Path 2384" d="M151.125,328.4s3.882,3.1,4.829,6.109,1.372,9.212,3.179,9c0,0,3.917-9.431-.485-14.766-4.667-5.657-7.523-.344-7.523-.344" transform="translate(-97.001 -209.332)" fill="#b53c37"/>
        <path id="Path_2385" data-name="Path 2385" d="M148.234,435.2s10.985,27.138,11.308,32.63,1.293,89.812,1.293,89.812-.646,3.877,6.784,2.261,9.369-3.23,9.369-3.23-7.108-52.014-5.169-70.105-14.861-47.6-14.861-47.6Z" transform="translate(-95.146 -279.337)" fill="#ff912b"/>
        <path id="Path_2386" data-name="Path 2386" d="M168.412,899.05l-6.436.2a3.719,3.719,0,0,1-2.985-1.347,166.109,166.109,0,0,1-28.474-53.681q-.373-1.182-.788-2.393c-5.835-17.013-17.93-38.367-24.3-57.7-1.015-3.079-1.926-5.977-2.743-8.719-.262-.879-.517-1.742-.759-2.591l6.778-5.143s20.35,32.953,26.649,63.963c5.473,26.937,27.39,59.35,33.063,67.411" transform="translate(-65.42 -492.74)" fill="#153d74"/>
        <path id="Path_2387" data-name="Path 2387" d="M59.646,818.854c.11,14.266-.567,46.065-2.3,61.61a2.808,2.808,0,0,1-2.793,2.5h-4.8c-2.024,0-3.539-.015-4.545-.029a1.848,1.848,0,0,1-1.782-1.492c-4.775-24.3-8.194-44.493-10.7-61.938-2.094-14.6-3.954-27.121-5.386-37.9-1.441-10.846-2.442-19.926-2.8-27.6-.055-1.208-.1-2.384-.119-3.525s-.029-2.261-.02-3.344l39.769-3.876c-.5,26.423-4.587,66.832-4.523,75.6" transform="translate(-15.659 -477.067)" fill="#214d9a"/>
        <path id="Path_2388" data-name="Path 2388" d="M50,902.218c-1.819,0-3.226-.012-4.222-.025a2.241,2.241,0,0,1-2.166-1.81c-4.743-24.163-8.143-44.254-10.634-61.625-2.093-14.6-3.954-27.121-5.385-37.9-1.442-10.845-2.443-19.926-2.8-27.6l14.593,8.584s-9.314,3.285-5.76,28.161S45.057,898.7,50,902.218" transform="translate(-15.915 -496.325)" fill="#153d74"/>
        <path id="Path_2389" data-name="Path 2389" d="M35.967,557.019s-2.8,10.122-12.493,8.829S0,558.741,0,558.741s4.142-13.087,9.291-30.281c6.235-20.815,13.953-47.649,17.591-64.574a104.659,104.659,0,0,0,1.977-11.54l8.041-15.6s11.989,26.908,12.635,33.692-13.569,86.582-13.569,86.582" transform="translate(0 -280.328)" fill="#ff912b"/>
        <path id="Path_2390" data-name="Path 2390" d="M52.189,533.294c-.433,10.984-3.017,32.307-26.062,43.72-.061.029-.123.061-.184.087,6.235-20.815,13.953-47.649,17.591-64.574,4.232,6.326,8.891,14.719,8.655,20.767" transform="translate(-16.652 -328.97)" fill="#fc7600"/>
        <path id="Path_2391" data-name="Path 2391" d="M43.045,469.426l10.612-32.681c-.029.014-13.4,3.98-20.131,7.379,0,0-4.205,5.421-6.807,17.929,0,0-2.749,30.029,3.389,41.014,0,0,19.384,3.876,50.4-6.785v-7.107s-33.922,1.776-40.868,2.584Z" transform="translate(-16.756 -280.328)" fill="#ffae73"/>
        <path id="Path_2392" data-name="Path 2392" d="M51.811,436.745S32.139,438.131,27.4,448.684s-6.246,45.66-.215,56c0,0,8.3,2.365,22.987-.381l.543-.1s4.685-11.469.485-13.73c0,0-12.384.646-11.092-3.446s11.7-50.276,11.7-50.276" transform="translate(-14.91 -280.328)" fill="#ff912b"/>
        <path id="Path_2393" data-name="Path 2393" d="M181.371,577.406l-.579,1.862-32.28-10.042a1.239,1.239,0,0,1-.218-1.141.913.913,0,0,1,.8-.721Z" transform="translate(-95.146 -364.168)" fill="#b53c37"/>
        <path id="Path_2394" data-name="Path 2394" d="M242.056,597.163l-2.335-1.76-.579,1.862Z" transform="translate(-153.496 -382.165)" fill="#b53c37"/>
        <path id="Path_2395" data-name="Path 2395" d="M172.628,576.171s7.323-4.51,10.4-3.816,10.9,6.364,7.136,7.593-6.816-.061-8.264.831-2.517,2.522-9.267,2.5,0-7.108,0-7.108" transform="translate(-108.878 -367.325)" fill="#ffae73"/>
        <path id="Path_2396" data-name="Path 2396" d="M170.493,607.2l33.543.013,12.911-48.771-33.543-.012Z" transform="translate(-109.433 -358.43)" fill="#1e3865"/>
        <path id="Path_2397" data-name="Path 2397" d="M207.489,549.039s-2.567.421-1.451,3.361h11.453l-3.664-3.361Z" transform="translate(-132.067 -352.406)" fill="#99aef9"/>
        <path id="Path_2398" data-name="Path 2398" d="M210.593,549.039s5.057,0,6.813,4.074c2.146,4.979,1.229,18.891,1.229,18.891h26.911s4.248-16.35-4.634-22.965Z" transform="translate(-135.172 -352.406)" fill="#fff"/>
        <path id="Path_2399" data-name="Path 2399" d="M271.781,622.985s-4.052-3.034-5.3-1.284.963,10.677,3.613,10.019,2.682-6.919,1.691-8.735" transform="translate(-170.81 -398.695)" fill="#ffae73"/>
      </g>
    </g>
  </g>
</svg>
