<svg xmlns="http://www.w3.org/2000/svg" width="10.407" height="13.769" viewBox="0 0 10.407 13.769">
  <g id="_712010" data-name="712010" transform="translate(-62.512)">
    <g id="Group_758" data-name="Group 758" transform="translate(62.512 5.284)">
      <g id="Group_757" data-name="Group 757" transform="translate(0)">
        <path id="Path_932" data-name="Path 932" d="M72.118,196.465H63.313a.8.8,0,0,0-.8.8v6.885a.8.8,0,0,0,.8.8h8.806a.8.8,0,0,0,.8-.8v-6.885A.8.8,0,0,0,72.118,196.465Zm-.16,7.525H63.473v-6.564h8.486v6.564Z" transform="translate(-62.512 -196.465)" fill="#262626"/>
      </g>
    </g>
    <g id="Group_760" data-name="Group 760" transform="translate(63.793)">
      <g id="Group_759" data-name="Group 759" transform="translate(0)">
        <path id="Path_933" data-name="Path 933" d="M114.063,0a3.943,3.943,0,0,0-3.923,3.955V5.6h.961V3.955a2.962,2.962,0,1,1,5.924,0V5.6h.961V3.955A3.943,3.943,0,0,0,114.063,0Z" transform="translate(-110.14)" fill="#262626"/>
      </g>
    </g>
    <g id="Group_762" data-name="Group 762" transform="translate(67.155 8.966)">
      <g id="Group_761" data-name="Group 761" transform="translate(0)">
        <path id="Path_934" data-name="Path 934" d="M235.643,333.395a.48.48,0,0,0-.48.48V335a.48.48,0,0,0,.961,0v-1.121A.48.48,0,0,0,235.643,333.395Z" transform="translate(-235.163 -333.395)" fill="#262626"/>
      </g>
    </g>
  </g>
</svg>
