<?xml version="1.0"?>
<svg xmlns="http://www.w3.org/2000/svg" xmlns:xlink="http://www.w3.org/1999/xlink" xmlns:svgjs="http://svgjs.com/svgjs" version="1.1" width="512" height="512" x="0" y="0" viewBox="0 0 512.001 512" style="enable-background:new 0 0 512 512" xml:space="preserve" class=""><g transform="matrix(1.2,-2.939152317953647e-16,2.939152317953647e-16,1.2,-96.20000000000016,-51.57382812499972)"><path xmlns="http://www.w3.org/2000/svg" d="m428.324219 39.976562h-368.359375c-11.019532 0-19.988282 8.96875-19.988282 19.992188v255.464844c-23.265624-8.25-39.976562-30.46875-39.976562-56.527344v-198.9375c0-33.066406 26.902344-59.96875 59.964844-59.96875h311.828125c26.058593 0 48.277343 16.710938 56.53125 39.976562zm-3.085938 252.234376-28.269531 28.269531 38.320312 38.320312h-148.449218v39.980469h148.820312l-38.691406 38.6875 28.269531 28.269531 86.761719-86.765625zm-285.316406 66.640624h105.941406v39.925782h-105.941406c-33.066406 0-59.964844-26.847656-59.964844-59.914063v-198.941406c0-33.066406 26.898438-59.964844 59.964844-59.964844h311.828125c33.066406 0 59.964844 26.898438 59.964844 59.964844v181.898437l-39.976563-39.976562v-131.777344l-175.902343 130.839844-175.902344-130.839844v188.796875c0 11.023438 8.96875 19.988281 19.988281 19.988281zm155.914063-127.769531 149.429687-111.148437h-298.859375zm0 0" fill="#000000" data-original="#000000" style="" class=""/></g></svg>
