<?xml version="1.0"?>
<svg xmlns="http://www.w3.org/2000/svg" xmlns:xlink="http://www.w3.org/1999/xlink" xmlns:svgjs="http://svgjs.com/svgjs" version="1.1" width="512" height="512" x="0" y="0" viewBox="0 0 512 512" style="enable-background:new 0 0 512 512" xml:space="preserve" class=""><g transform="matrix(1.1,-5.388445916248356e-16,5.388445916248356e-16,1.1,-90.6000000000002,-89.15253906250015)"><path xmlns="http://www.w3.org/2000/svg" d="m442.171875 80.050781h-10.171875v-.050781c0-44.113281-35.886719-80-80-80h-272c-44.113281 0-80 35.886719-80 80v159.050781c0 44.113281 35.886719 80 80 80v21.429688c0 38.359375 31.324219 69.570312 69.828125 69.570312h77.171875c11.046875 0 20-8.953125 20-20s-8.953125-20-20-20h-77.171875c-16.445313 0-29.828125-13.265625-29.828125-29.570312v-171.199219l139.164062 86.089844c11.359376 7.027344 24.097657 10.539062 36.835938 10.539062s25.476562-3.511718 36.835938-10.539062l139.164062-86.089844v99.769531c0 11.046875 8.953125 20 20 20s20-8.953125 20-20v-119.425781c0-38.363281-31.324219-69.574219-69.828125-69.574219zm-402.171875 159v-159.050781c0-22.054688 17.945312-40 40-40h272c22.054688 0 40 17.945312 40 40v.050781h-242.171875c-38.503906 0-69.828125 31.210938-69.828125 69.574219v129.425781c-22.054688 0-40-17.945312-40-40zm271.792969-17.699219c-9.59375 5.933594-21.992188 5.933594-31.585938 0l-150.777343-93.273437c5.339843-4.972656 12.515624-8.027344 20.398437-8.027344h292.34375c7.882813 0 15.0625 3.054688 20.398437 8.027344zm182.699219 126.1875c23.292968 23.441407 23.292968 61.582032 0 85.023438l-44.304688 44.585938c-3.910156 3.933593-9.046875 5.902343-14.1875 5.902343-5.097656 0-10.195312-1.9375-14.097656-5.8125-7.835938-7.785156-7.875-20.449219-.089844-28.285156l38.65625-38.902344h-153.46875c-11.046875 0-20-8.953125-20-20 0-11.042969 8.953125-20 20-20h153.46875l-38.65625-38.902343c-7.785156-7.835938-7.746094-20.496094.089844-28.28125 7.835937-7.789063 20.5-7.75 28.285156.089843zm0 0" fill="#0000ff" data-original="#000000" style="" class=""/></g></svg>
